<?xml version="1.0" encoding="utf-8"?>
<!-- Generator: Adobe Illustrator 16.0.0, SVG Export Plug-In . SVG Version: 6.00 Build 0)  -->
<!DOCTYPE svg PUBLIC "-//W3C//DTD SVG 1.1//EN" "http://www.w3.org/Graphics/SVG/1.1/DTD/svg11.dtd">
<svg version="1.1" xmlns="http://www.w3.org/2000/svg" xmlns:xlink="http://www.w3.org/1999/xlink" x="0px" y="0px" width="576px"
	 height="720px" viewBox="0 0 576 720" enable-background="new 0 0 576 720" xml:space="preserve">
<g id="Layer_1">
	<path display="none" d="M570,216l-6,72H432c60.67,0,108.46-26.04,130.58-72H570z"/>
	<path display="none" d="M144,432c-60.67,0-108.46,26.04-130.58,72H6l6-72H144z"/>
</g>
<g id="Layer_2">
	<path display="none" d="M342,153c0-3.04,0.17-6.05,0.5-9h-72.24c-0.17,2.98-0.26,5.98-0.26,9c0,84.5,68.5,153,153,153v-72
		C378.27,234,342,197.73,342,153z"/>
	<rect x="261" y="144" display="none" width="162" height="162"/>
	<path display="none" d="M504,153c0,44.73-36.27,81-81,81s-81-36.27-81-81s36.27-81,81-81S504,108.27,504,153z"/>
	<path display="none" d="M504,153c0,44.73-36.27,81-81,81s-81-36.27-81-81s36.27-81,81-81S504,108.27,504,153z"/>
	<g>
		<polygon points="240,288 24,288 30,216 246,216 		"/>
		<polygon points="306,576 234,576 270,144 342,144 		"/>
		<path d="M562.58,216c-22.12,45.96-69.91,72-130.58,72h-84l6-72H562.58z"/>
		<path d="M228,432l-6,72H13.42c22.12-45.96,69.91-72,130.58-72H228z"/>
		<polygon points="546,504 330,504 336,432 552,432 		"/>
		<path d="M576,153c0,23.83-4.73,44.95-13.42,63c-22.12,45.96-69.91,72-130.58,72v-72c44.73,0,72-27.27,72-72s-36.27-72-81-72
			c-41.69,0-76.53,32.5-81,73l-72-1C274.66,63.69,341.52,0,423,0C507.5,0,576,68.5,576,153z"/>
		<path d="M306,576c-4.66,80.31-71.52,144-153,144C68.5,720,0,651.5,0,567c0-23.83,4.73-44.95,13.42-63
			c22.12-45.96,69.91-72,130.58-72v72c-44.73,0-72,27.27-72,72s36.27,72,81,72c41.69,0,76.53-33.5,81-74L306,576z"/>
	</g>
</g>
<g id="Layer_3">
</g>
</svg>
