<?xml version="1.0" encoding="utf-8"?>
<!-- Generator: Adobe Illustrator 16.0.0, SVG Export Plug-In . SVG Version: 6.00 Build 0)  -->
<!DOCTYPE svg PUBLIC "-//W3C//DTD SVG 1.1//EN" "http://www.w3.org/Graphics/SVG/1.1/DTD/svg11.dtd">
<svg version="1.1" xmlns="http://www.w3.org/2000/svg" xmlns:xlink="http://www.w3.org/1999/xlink" x="0px" y="0px"
	 width="802.665px" height="792px" viewBox="0 0 802.665 792" enable-background="new 0 0 802.665 792" xml:space="preserve">
<g id="Layer_4">
	<g>
		<path fill="#555869" d="M802.567,9.901C803.339,4.456,799.471,0,793.971,0h-673c-5.5,0-10.632,4.456-11.404,9.901L0.098,782.099
			C-0.674,787.545,3.194,792,8.694,792h673c5.5,0,10.632-4.455,11.403-9.901L802.567,9.901z"/>
	</g>
</g>
<g id="Layer_1">
	<path display="none" d="M678.833,252l-6,72h-132c60.67,0,108.46-26.04,130.58-72H678.833z"/>
	<path display="none" d="M252.833,468c-60.67,0-108.46,26.04-130.58,72h-7.42l6-72H252.833z"/>
</g>
<g id="Layer_2">
	<path display="none" d="M450.833,189c0-3.04,0.17-6.05,0.5-9h-72.24c-0.17,2.98-0.26,5.98-0.26,9c0,84.5,68.5,153,153,153v-72
		C487.103,270,450.833,233.73,450.833,189z"/>
	<rect x="369.833" y="180" display="none" width="162" height="162"/>
	<path display="none" d="M612.833,189c0,44.73-36.27,81-81,81s-81-36.27-81-81s36.27-81,81-81S612.833,144.27,612.833,189z"/>
	<path display="none" d="M612.833,189c0,44.73-36.27,81-81,81s-81-36.27-81-81s36.27-81,81-81S612.833,144.27,612.833,189z"/>
	<g>
		<polygon fill="#FFFFFF" points="353.738,324 137.738,324 148.643,252 364.643,252 		"/>
		<polygon fill="#FFFFFF" points="400.119,612 328.119,612 393.547,180 465.547,180 		"/>
		<path fill="#FFFFFF" d="M681.223,252c-25.251,45.96-74.815,72-135.485,72h-84l10.905-72H681.223z"/>
		<path fill="#FFFFFF" d="M331.929,468l-10.905,72h-208.58c25.251-45.96,74.815-72,135.485-72H331.929z"/>
		<polygon fill="#FFFFFF" points="645.024,540 429.024,540 439.929,468 655.929,468 		"/>
		<path fill="#FFFFFF" d="M698.935,189c-1.624,23.83-7.793,44.95-17.712,63c-25.251,45.96-74.815,72-135.485,72l4.905-72
			c44.73,0,73.857-27.27,76.904-72c3.047-44.73-31.365-72-76.095-72c-41.69,0-78.744,32.5-85.973,73l-72.146,0.25
			C403.464,100.94,474.876,36,556.356,36C640.856,36,704.69,104.5,698.935,189z"/>
		<path fill="#FFFFFF" d="M400.167,611c-10.131,80.31-81.376,145-162.856,145c-84.5,0-148.334-68.5-142.578-153
			c1.623-23.83,7.792-44.95,17.711-63c25.251-45.96,74.815-72,135.485-72l-4.905,72c-44.73,0-73.857,27.27-76.905,72
			c-3.047,44.73,31.365,72,76.096,72c41.689,0,78.812-33.5,86.041-74L400.167,611z"/>
	</g>
</g>
<g id="Layer_3">
</g>
</svg>
